<svg width="21" height="22" viewBox="0 0 21 22" fill="none" xmlns="http://www.w3.org/2000/svg">
<path d="M1.80768 19.1153C1.30255 19.1153 0.874992 18.9403 0.524995 18.5903C0.174998 18.2403 0 17.8128 0 17.3076V3.92307C0 3.41795 0.174998 2.99039 0.524995 2.64039C0.874992 2.29039 1.30255 2.11539 1.80768 2.11539H3.19232V0H4.73075V2.11539H12.3076V0H13.8076V2.11539H15.1922C15.6974 2.11539 16.1249 2.29039 16.4749 2.64039C16.8249 2.99039 16.9999 3.41795 16.9999 3.92307V9.76921H15.5V7.92307H1.49996V17.3076C1.49996 17.3846 1.53202 17.4551 1.59612 17.5192C1.66023 17.5833 1.73075 17.6154 1.80768 17.6154H8.64421V19.1153H1.80768ZM15.5 21.4615C14.3602 21.4615 13.357 21.1112 12.4904 20.4105C11.6237 19.7099 11.0609 18.8295 10.8019 17.7692H12.0442C12.2865 18.509 12.7182 19.1106 13.3394 19.574C13.9605 20.0375 14.6807 20.2692 15.5 20.2692C16.5115 20.2692 17.3734 19.9131 18.0855 19.2009C18.7977 18.4888 19.1538 17.6269 19.1538 16.6154C19.1538 15.6038 18.7977 14.742 18.0855 14.0298C17.3734 13.3176 16.5115 12.9615 15.5 12.9615C14.9525 12.9615 14.4352 13.0794 13.948 13.3154C13.4608 13.5513 13.0365 13.8692 12.6749 14.2692H14.3461V15.4615H10.6538V11.7692H11.8461V13.4058C12.3089 12.9147 12.8564 12.5192 13.4884 12.2192C14.1205 11.9192 14.791 11.7692 15.5 11.7692C16.8384 11.7692 17.9807 12.2423 18.9269 13.1884C19.873 14.1346 20.3461 15.2769 20.3461 16.6154C20.3461 17.9538 19.873 19.0961 18.9269 20.0423C17.9807 20.9884 16.8384 21.4615 15.5 21.4615ZM1.49996 6.42311H15.5V3.92307C15.5 3.84614 15.4679 3.77562 15.4038 3.71152C15.3397 3.64741 15.2692 3.61536 15.1922 3.61536H1.80768C1.73075 3.61536 1.66023 3.64741 1.59612 3.71152C1.53202 3.77562 1.49996 3.84614 1.49996 3.92307V6.42311ZM1.49996 6.42311V3.92307C1.49996 3.83332 1.49996 3.7596 1.49996 3.7019C1.49996 3.6442 1.49996 3.61536 1.49996 3.61536C1.49996 3.61536 1.49996 3.6442 1.49996 3.7019C1.49996 3.7596 1.49996 3.83332 1.49996 3.92307V6.42311Z" fill="#77525C"/>
</svg>
