<svg width="25" height="17" viewBox="0 0 25 17" fill="none" xmlns="http://www.w3.org/2000/svg">
<path d="M2.6077 16.9615L6.12982 10.8316C6.04327 10.8797 5.9423 10.9134 5.82691 10.9326C5.71152 10.9518 5.59612 10.9615 5.48073 10.9615C3.95574 10.9615 2.66104 10.4248 1.59662 9.3515C0.532207 8.27819 0 6.98793 0 5.48073C0 3.95574 0.532207 2.66104 1.59662 1.59662C2.66104 0.532207 3.95574 0 5.48073 0C6.98793 0 8.27819 0.532207 9.3515 1.59662C10.4248 2.66104 10.9615 3.95407 10.9615 5.47571C10.9615 6.00598 10.8975 6.49803 10.7696 6.95188C10.6418 7.40572 10.4547 7.83841 10.2086 8.24994L5.19225 16.9615H2.6077ZM15.9346 16.9615L19.4567 10.8316C19.3702 10.8797 19.2692 10.9134 19.1538 10.9326C19.0384 10.9518 18.923 10.9615 18.8076 10.9615C17.2827 10.9615 15.9879 10.4248 14.9235 9.3515C13.8591 8.27819 13.3269 6.98793 13.3269 5.48073C13.3269 3.94612 13.8591 2.64902 14.9235 1.58941C15.9879 0.529804 17.2827 0 18.8076 0C20.3148 0 21.6051 0.532207 22.6784 1.59662C23.7517 2.66104 24.2884 3.95407 24.2884 5.47571C24.2884 6.00598 24.2244 6.49803 24.0965 6.95188C23.9687 7.40572 23.7816 7.83841 23.5355 8.24994L18.5192 16.9615H15.9346ZM5.48073 8.25C6.24997 8.25 6.90383 7.98077 7.4423 7.4423C7.98077 6.90383 8.25 6.24997 8.25 5.48073C8.25 4.71149 7.98077 4.05763 7.4423 3.51917C6.90383 2.9807 6.24997 2.71146 5.48073 2.71146C4.71149 2.71146 4.05763 2.9807 3.51917 3.51917C2.9807 4.05763 2.71146 4.71149 2.71146 5.48073C2.71146 6.24997 2.9807 6.90383 3.51917 7.4423C4.05763 7.98077 4.71149 8.25 5.48073 8.25ZM18.8076 8.25C19.5769 8.25 20.2307 7.98077 20.7692 7.4423C21.3077 6.90383 21.5769 6.24997 21.5769 5.48073C21.5769 4.71149 21.3077 4.05763 20.7692 3.51917C20.2307 2.9807 19.5769 2.71146 18.8076 2.71146C18.0384 2.71146 17.3845 2.9807 16.8461 3.51917C16.3076 4.05763 16.0384 4.71149 16.0384 5.48073C16.0384 6.24997 16.3076 6.90383 16.8461 7.4423C17.3845 7.98077 18.0384 8.25 18.8076 8.25Z" fill="#FFFBFF"/>
</svg>
