<svg width="10" height="10" viewBox="0 0 10 10" fill="none" xmlns="http://www.w3.org/2000/svg">
<path d="M1.31025 8.00933C0.898927 7.59614 0.577721 7.12102 0.346633 6.58398C0.115544 6.04694 0 5.49169 0 4.91824C0 4.34314 0.110122 3.77252 0.330367 3.20639C0.550612 2.64026 0.906406 2.11152 1.39775 1.62018C1.75299 1.26494 2.19778 0.972341 2.73213 0.742374C3.26648 0.512407 3.87169 0.337221 4.54776 0.216817C5.22383 0.0964123 5.96065 0.0263012 6.75824 0.00648353C7.55583 -0.0133342 8.3925 0.0122795 9.26823 0.0833246C9.33105 0.919421 9.35255 1.73178 9.33273 2.52039C9.31291 3.30901 9.24392 4.04434 9.12576 4.72639C9.0076 5.40844 8.83503 6.02263 8.60806 6.56894C8.38108 7.11526 8.08885 7.56716 7.73137 7.92464C7.24975 8.41 6.73466 8.7643 6.18611 8.98753C5.63755 9.21077 5.08197 9.32239 4.51935 9.32239C3.92952 9.32239 3.35004 9.20684 2.78092 8.97575C2.21179 8.74467 1.72157 8.42252 1.31025 8.00933ZM2.61824 7.91343C2.9114 8.0974 3.22121 8.23239 3.54765 8.3184C3.87409 8.4044 4.19848 8.44741 4.52081 8.44741C4.97056 8.44741 5.41543 8.35841 5.8554 8.18042C6.29538 8.00243 6.7128 7.71226 7.10767 7.30991C7.28197 7.13491 7.45869 6.88942 7.63783 6.57345C7.81697 6.25748 7.9719 5.84428 8.10263 5.33387C8.23335 4.82345 8.3326 4.20609 8.40039 3.48178C8.46817 2.75748 8.4815 1.89463 8.44036 0.893241C7.96397 0.873796 7.42495 0.868374 6.8233 0.876975C6.22164 0.885576 5.62148 0.934561 5.02281 1.02393C4.42415 1.1133 3.85839 1.25334 3.32554 1.44404C2.79269 1.63475 2.36173 1.89463 2.03267 2.22369C1.59891 2.65745 1.29752 3.09663 1.1285 3.54124C0.959487 3.98584 0.874979 4.40745 0.874979 4.80606C0.874979 5.35724 0.982484 5.85569 1.19749 6.30142C1.4125 6.74714 1.6363 7.07807 1.8689 7.29421C2.19496 6.56131 2.65321 5.85813 3.24364 5.18468C3.83407 4.51124 4.58212 3.9236 5.48778 3.42178C4.80274 4.01932 4.21604 4.67557 3.72769 5.39052C3.23934 6.10548 2.86952 6.94645 2.61824 7.91343Z" fill="#685C58"/>
</svg>
