<?xml version="1.0" encoding="UTF-8"?>
<svg xmlns="http://www.w3.org/2000/svg" version="1.1" width="115" height="81" style="background: transparent;">

<path d="M0 0 C8.91 0 17.82 0 27 0 C27 0.99 27 1.98 27 3 C24.69 3.66 22.38 4.32 20 5 C20 18.53 20 32.06 20 46 C25.61 46 31.22 46 37 46 C37.66 44.68 38.32 43.36 39 42 C39.34160156 41.32839844 39.68320312 40.65679687 40.03515625 39.96484375 C40.37417969 39.29582031 40.71320312 38.62679687 41.0625 37.9375 C41.40410156 37.26589844 41.74570312 36.59429687 42.09765625 35.90234375 C43.11490381 33.85671686 43.11490381 33.85671686 44 31 C48.01412909 32.33804303 48.73005954 34.52415367 51 38 C54.31371 40.20914 55.3446021 40.22481553 59.1875 40.125 C60.08855469 40.10695312 60.98960938 40.08890625 61.91796875 40.0703125 C62.60503906 40.04710937 63.29210937 40.02390625 64 40 C64 38.02 64 36.04 64 34 C63.443125 33.75765625 62.88625 33.5153125 62.3125 33.265625 C58.37476161 31.53621287 54.44707085 29.78356211 50.5625 27.9375 C49.92441406 27.63714844 49.28632812 27.33679688 48.62890625 27.02734375 C47 26 47 26 45 23 C44.21006481 16.00343119 44.21006481 16.00343119 47.3125 12.0625 C51.97809282 8.48192876 56.34530457 8.58647635 62 9 C65.5625 10 65.5625 10 68 11 C68 10.34 68 9.68 68 9 C68.99 9 69.98 9 71 9 C71 12.96 71 16.92 71 21 C66.99097581 19.6636586 66.19108105 17.50572968 64 14 C63.02089415 12.80304724 63.02089415 12.80304724 61.1875 12.8671875 C60.465625 12.86976562 59.74375 12.87234375 59 12.875 C58.278125 12.87242188 57.55625 12.86984375 56.8125 12.8671875 C54.97910585 12.80304724 54.97910585 12.80304724 54 14 C53.95936168 15.66617115 53.957279 17.33388095 54 19 C55.03640625 19.38671875 56.0728125 19.7734375 57.140625 20.171875 C58.51063149 20.69735694 59.88041139 21.22342989 61.25 21.75 C61.93191406 22.00265625 62.61382812 22.2553125 63.31640625 22.515625 C67.31595461 24.06884766 70.33457896 25.47975958 73 29 C73.58880855 33.6368673 73.66959068 35.81533956 71.375 39.875 C66.55468966 44.18790925 61.60441653 44.25828159 55.4140625 44.13671875 C52.55742108 43.97493485 49.79944104 43.58935601 47 43 C46.67 45.31 46.34 47.62 46 50 C30.82 50 15.64 50 0 50 C0 49.01 0 48.02 0 47 C1.98 46.34 3.96 45.68 6 45 C6.33 31.8 6.66 18.6 7 5 C4.69 4.34 2.38 3.68 0 3 C0 2.01 0 1.02 0 0 Z " fill="#76535D" transform="translate(7,10)"/>
<path d="M0 0 C0 -0.66 0 -1.32 0 -2 C0.99 -2 1.98 -2 3 -2 C3 1.96 3 5.92 3 10 C-1.00902419 8.6636586 -1.80891895 6.50572968 -4 3 C-4.97910585 1.80304724 -4.97910585 1.80304724 -6.8125 1.8671875 C-7.534375 1.86976562 -8.25625 1.87234375 -9 1.875 C-9.721875 1.87242188 -10.44375 1.86984375 -11.1875 1.8671875 C-13.02089415 1.80304724 -13.02089415 1.80304724 -14 3 C-14.04063832 4.66617115 -14.042721 6.33388095 -14 8 C-12.96359375 8.38671875 -11.9271875 8.7734375 -10.859375 9.171875 C-9.48936851 9.69735694 -8.11958861 10.22342989 -6.75 10.75 C-6.06808594 11.00265625 -5.38617188 11.2553125 -4.68359375 11.515625 C-0.68404539 13.06884766 2.33457896 14.47975958 5 18 C5.58880855 22.6368673 5.66959068 24.81533956 3.375 28.875 C-1.44531034 33.18790925 -6.39558347 33.25828159 -12.5859375 33.13671875 C-15.44257892 32.97493485 -18.20055896 32.58935601 -21 32 C-21.33 34.31 -21.66 36.62 -22 39 C-22.33 39 -22.66 39 -23 39 C-23.36247871 36.39674384 -23.71527655 33.79279598 -24.0625 31.1875 C-24.16626953 30.44951172 -24.27003906 29.71152344 -24.37695312 28.95117188 C-24.82086566 25.56825221 -25.09314992 23.27944975 -24 20 C-19.98587091 21.33804303 -19.26994046 23.52415367 -17 27 C-13.68629 29.20914 -12.6553979 29.22481553 -8.8125 29.125 C-7.46091797 29.09792969 -7.46091797 29.09792969 -6.08203125 29.0703125 C-5.39496094 29.04710938 -4.70789063 29.02390625 -4 29 C-4 27.02 -4 25.04 -4 23 C-4.556875 22.75765625 -5.11375 22.5153125 -5.6875 22.265625 C-9.62523839 20.53621287 -13.55292915 18.78356211 -17.4375 16.9375 C-18.07558594 16.63714844 -18.71367188 16.33679688 -19.37109375 16.02734375 C-21 15 -21 15 -23 12 C-23.78993519 5.00343119 -23.78993519 5.00343119 -20.6875 1.0625 C-14.55539976 -3.64353042 -6.87892788 -2.82212426 0 0 Z " fill="#B7969D" transform="translate(75,21)"/>
<path d="M0 0 C28.05 0 56.1 0 85 0 C85.495 1.485 85.495 1.485 86 3 C57.29 3 28.58 3 -1 3 C-0.67 2.01 -0.34 1.02 0 0 Z " fill="#AD969C" transform="translate(5,67)"/>
</svg>