<svg width="19" height="19" viewBox="0 0 19 19" fill="none" xmlns="http://www.w3.org/2000/svg">
<path d="M9.59996 18.8172C8.2699 18.8172 7.02296 18.565 5.85916 18.0605C4.69535 17.556 3.68011 16.8704 2.81345 16.0038C1.94679 15.1371 1.26121 14.1219 0.756728 12.9581C0.252243 11.7943 0 10.5473 0 9.21726C0 7.02753 0.66762 5.07723 2.00286 3.36634C3.3381 1.65545 5.06469 0.533339 7.18261 0C6.99801 1.60512 7.1634 3.16153 7.67878 4.66922C8.19417 6.17691 9.0243 7.50318 10.1692 8.64805C11.314 9.79292 12.6403 10.6231 14.148 11.1384C15.6557 11.6538 17.2121 11.8192 18.8172 11.6346C18.2941 13.7525 17.1746 15.4791 15.4586 16.8144C13.7426 18.1496 11.7897 18.8172 9.59996 18.8172ZM9.59996 17.3173C11.0666 17.3173 12.425 16.9506 13.675 16.2173C14.925 15.4839 15.9083 14.4747 16.625 13.1896C15.1916 13.0561 13.8333 12.6931 12.55 12.1006C11.2666 11.5081 10.1166 10.7028 9.09996 9.68475C8.0833 8.66668 7.27496 7.51758 6.67496 6.23745C6.07496 4.95732 5.71663 3.60059 5.59996 2.16726C4.31663 2.88392 3.31246 3.87142 2.58746 5.12976C1.86246 6.38809 1.49996 7.75059 1.49996 9.21726C1.49996 11.4673 2.28746 13.3798 3.86246 14.9548C5.43746 16.5298 7.34996 17.3173 9.59996 17.3173Z" fill="#77525C"/>
</svg>
