<svg width="33" height="31" viewBox="0 0 33 31" fill="none" xmlns="http://www.w3.org/2000/svg">
<path d="M0 30.75L7.5 9.75L21 23.25L0 30.75ZM4.95 25.8L15.525 22.05L8.7 15.225L4.95 25.8ZM18.825 16.575L17.25 15L25.65 6.6C26.45 5.8 27.4125 5.4 28.5375 5.4C29.6625 5.4 30.625 5.8 31.425 6.6L32.325 7.5L30.75 9.075L29.85 8.175C29.5 7.825 29.0625 7.65 28.5375 7.65C28.0125 7.65 27.575 7.825 27.225 8.175L18.825 16.575ZM12.825 10.575L11.25 9L12.15 8.1C12.5 7.75 12.675 7.325 12.675 6.825C12.675 6.325 12.5 5.9 12.15 5.55L11.175 4.575L12.75 3L13.725 3.975C14.525 4.775 14.925 5.725 14.925 6.825C14.925 7.925 14.525 8.875 13.725 9.675L12.825 10.575ZM15.825 13.575L14.25 12L19.65 6.6C20 6.25 20.175 5.8125 20.175 5.2875C20.175 4.7625 20 4.325 19.65 3.975L17.25 1.575L18.825 0L21.225 2.4C22.025 3.2 22.425 4.1625 22.425 5.2875C22.425 6.4125 22.025 7.375 21.225 8.175L15.825 13.575ZM21.825 19.575L20.25 18L22.65 15.6C23.45 14.8 24.4125 14.4 25.5375 14.4C26.6625 14.4 27.625 14.8 28.425 15.6L30.825 18L29.25 19.575L26.85 17.175C26.5 16.825 26.0625 16.65 25.5375 16.65C25.0125 16.65 24.575 16.825 24.225 17.175L21.825 19.575Z" fill="#FFFBFF"/>
</svg>
