<svg width="20" height="21" viewBox="0 0 20 21" fill="none" xmlns="http://www.w3.org/2000/svg">
<path d="M16.4037 6.8076L15.3461 4.46148L12.9999 3.4038L15.3461 2.34612L16.4037 0L17.4614 2.34612L19.8075 3.4038L17.4614 4.46148L16.4037 6.8076ZM16.4037 20.423L15.3461 18.0768L12.9999 17.0192L15.3461 15.9615L16.4037 13.6154L17.4614 15.9615L19.8075 17.0192L17.4614 18.0768L16.4037 20.423ZM6.78837 16.9999L4.67302 12.3268L0 10.2115L4.67302 8.09612L6.78837 3.42311L8.90373 8.09612L13.5767 10.2115L8.90373 12.3268L6.78837 16.9999ZM6.78837 13.3615L7.78837 11.2115L9.93837 10.2115L7.78837 9.21148L6.78837 7.06148L5.78837 9.21148L3.63837 10.2115L5.78837 11.2115L6.78837 13.3615Z" fill="#77525C"/>
</svg>
