<svg width="15" height="19" viewBox="0 0 15 19" fill="none" xmlns="http://www.w3.org/2000/svg">
<path d="M7.74612 16.1922C7.92047 16.1756 8.06406 16.1108 8.17688 15.998C8.2897 15.8852 8.34611 15.748 8.34611 15.5865C8.34611 15.398 8.28393 15.249 8.15957 15.1394C8.03521 15.0298 7.87881 14.9833 7.69035 15C7.00701 15.05 6.26278 14.8496 5.45765 14.399C4.65252 13.9484 4.14995 13.1647 3.94995 12.048C3.91662 11.8775 3.84515 11.7435 3.73553 11.6461C3.62592 11.5487 3.49548 11.5 3.3442 11.5C3.16215 11.5 3.01055 11.5682 2.8894 11.7048C2.76824 11.8413 2.72946 12.0166 2.77305 12.2307C3.04356 13.6833 3.69741 14.7217 4.73459 15.3461C5.77177 15.9705 6.77561 16.2525 7.74612 16.1922ZM7.49996 18.8461C5.35767 18.8461 3.5721 18.1108 2.14326 16.6403C0.714419 15.1698 0 13.3384 0 11.1461C0 9.59483 0.62083 7.89452 1.86249 6.04517C3.10415 4.19582 4.98331 2.18076 7.49996 0C10.0166 2.18076 11.8958 4.19582 13.1374 6.04517C14.3791 7.89452 14.9999 9.59483 14.9999 11.1461C14.9999 13.3384 14.2855 15.1698 12.8567 16.6403C11.4278 18.1108 9.64226 18.8461 7.49996 18.8461ZM7.49996 17.3461C9.2333 17.3461 10.6666 16.7586 11.8 15.5836C12.9333 14.4086 13.5 12.9294 13.5 11.1461C13.5 9.92944 12.9958 8.55444 11.9875 7.02111C10.9791 5.48777 9.4833 3.81277 7.49996 1.99611C5.51663 3.81277 4.0208 5.48777 3.01246 7.02111C2.00413 8.55444 1.49996 9.92944 1.49996 11.1461C1.49996 12.9294 2.06663 14.4086 3.19996 15.5836C4.3333 16.7586 5.76663 17.3461 7.49996 17.3461Z" fill="#77525C"/>
</svg>
