<svg width="19" height="19" viewBox="0 0 19 19" fill="none" xmlns="http://www.w3.org/2000/svg">
<path d="M8.74998 18.9999V10.7922C8.51409 10.6474 8.33012 10.4667 8.19807 10.2502C8.06602 10.0338 8 9.7833 8 9.4988C8 9.09061 8.14775 8.73876 8.44326 8.44326C8.73876 8.14775 9.091 8 9.49996 8C9.90893 8 10.2612 8.14775 10.5567 8.44326C10.8522 8.73876 10.9999 9.09023 10.9999 9.49766C10.9999 9.78163 10.9339 10.0347 10.8019 10.257C10.6698 10.4792 10.4858 10.6576 10.2499 10.7922V18.9999H8.74998ZM2.95576 16.3942C2.04422 15.5224 1.32371 14.4964 0.794228 13.3163C0.264743 12.1363 0 10.8651 0 9.50284C0 8.18811 0.24933 6.95267 0.74799 5.79653C1.24665 4.64039 1.9234 3.63471 2.77825 2.77948C3.6331 1.92426 4.63833 1.24721 5.79396 0.748323C6.94958 0.249441 8.18436 0 9.49829 0C10.8122 0 12.0473 0.249412 13.2034 0.748235C14.3595 1.24706 15.3652 1.92403 16.2204 2.77916C17.0757 3.63428 17.7527 4.63984 18.2516 5.79585C18.7505 6.95185 18.9999 8.18703 18.9999 9.50139C18.9999 10.8633 18.7352 12.1371 18.2057 13.323C17.6762 14.5089 16.9557 15.5326 16.0442 16.3942L15 15.3403C15.7666 14.6082 16.375 13.7388 16.825 12.7321C17.275 11.7255 17.5 10.6481 17.5 9.49996C17.5 7.26663 16.725 5.37496 15.175 3.82496C13.625 2.27496 11.7333 1.49996 9.49996 1.49996C7.26663 1.49996 5.37496 2.27496 3.82496 3.82496C2.27496 5.37496 1.49996 7.26663 1.49996 9.49996C1.49996 10.65 1.72496 11.725 2.17496 12.725C2.62496 13.725 3.24163 14.5916 4.02496 15.325L2.95576 16.3942ZM5.78076 13.5692C5.23589 13.064 4.80288 12.4627 4.48173 11.7651C4.16058 11.0676 4 10.3125 4 9.49996C4 7.9722 4.5345 6.67359 5.6035 5.60416C6.67249 4.53472 7.97056 4 9.4977 4C11.0248 4 12.3237 4.53509 13.3942 5.60527C14.4647 6.67544 14.9999 7.97495 14.9999 9.50377C14.9999 10.314 14.8394 11.0705 14.5182 11.773C14.197 12.4756 13.764 13.0743 13.2192 13.5692L12.15 12.5C12.5666 12.1166 12.8958 11.6666 13.1375 11.15C13.3791 10.6333 13.5 10.0833 13.5 9.49996C13.5 8.39996 13.1083 7.4583 12.325 6.67496C11.5416 5.89163 10.6 5.49996 9.49996 5.49996C8.39996 5.49996 7.4583 5.89163 6.67496 6.67496C5.89163 7.4583 5.49996 8.39996 5.49996 9.49996C5.49996 10.1 5.6208 10.6541 5.86246 11.1625C6.10413 11.6708 6.4333 12.1166 6.84996 12.5L5.78076 13.5692Z" fill="#77525C"/>
</svg>
