<svg width="11" height="10" viewBox="0 0 11 10" fill="none" xmlns="http://www.w3.org/2000/svg">
<path d="M8.17945 5.51278V4.51281H10.5897V5.51278H8.17945V5.51278M8.94099 9.99995L7.0128 8.55381L7.62048 7.75639L9.54867 9.20253L8.94099 9.99995V9.99995M7.59483 2.24356L6.98715 1.44614L8.91534 0L9.52302 0.797416L7.59483 2.24356V2.24356M0 6.67944V3.34615H2.47434L5.33328 0.487215V9.53838L2.47434 6.67944H0V6.67944M4.33331 2.9128L2.89998 4.34613H0.999976V5.67946H2.89998L4.33331 7.1128V2.9128V2.9128M2.66664 5.0128V5.0128V5.0128V5.0128V5.0128V5.0128V5.0128V5.0128" fill="#77525C"/>
</svg>
